<?xml version="1.0" encoding="UTF-8"?>
<!DOCTYPE svg PUBLIC "-//W3C//DTD SVG 1.1//EN" "http://www.w3.org/Graphics/SVG/1.1/DTD/svg11.dtd">
<!-- Creator: CorelDRAW X7 -->
<svg xmlns="http://www.w3.org/2000/svg" xml:space="preserve" width="10.2959mm" height="10.2959mm" version="1.1" style="shape-rendering:geometricPrecision; text-rendering:geometricPrecision; image-rendering:optimizeQuality; fill-rule:evenodd; clip-rule:evenodd"
viewBox="0 0 1030 1030"
 xmlns:xlink="http://www.w3.org/1999/xlink">
 <defs>
  <style type="text/css">
   <![CDATA[
    .str0 {stroke:#2B2A29;stroke-width:30.012}
    .fil1 {fill:#2B2A29}
    .fil0 {fill:#FEFEFE}
   ]]>
  </style>
 </defs>
 <g id="Layer_x0020_1">
  <metadata id="CorelCorpID_0Corel-Layer"/>
  <rect class="fil0" x="15" y="15" width="1000" height="1000"/>
  <circle class="fil0 str0" cx="515" cy="515" r="500"/>
  <path class="fil1" d="M326 276c52,-35 111,-53 180,-53 30,0 59,4 84,13 26,8 48,20 66,36 19,15 33,34 43,56 10,21 15,45 15,71 0,42 -15,81 -44,116 -12,15 -25,27 -37,37 -13,10 -39,26 -76,48 -45,27 -79,49 -102,69 -23,19 -40,39 -51,59l216 0c22,0 37,-3 46,-10 9,-7 15,-19 16,-36l36 0 0 124 -406 0c2,-47 14,-89 34,-124 11,-19 27,-39 49,-58 20,-19 53,-45 99,-77 14,-11 31,-24 50,-39 41,-34 62,-70 62,-108 0,-20 -6,-39 -16,-56 -10,-16 -25,-28 -42,-38 -18,-9 -39,-13 -61,-13 -30,0 -55,7 -75,24 -20,16 -34,39 -41,69l-45 0 0 -110 0 0z"/>
 </g>
</svg>
