<?xml version="1.0" encoding="UTF-8"?>
<!DOCTYPE svg PUBLIC "-//W3C//DTD SVG 1.1//EN" "http://www.w3.org/Graphics/SVG/1.1/DTD/svg11.dtd">
<!-- Creator: CorelDRAW X7 -->
<svg xmlns="http://www.w3.org/2000/svg" xml:space="preserve" width="10.2959mm" height="10.2959mm" version="1.1" style="shape-rendering:geometricPrecision; text-rendering:geometricPrecision; image-rendering:optimizeQuality; fill-rule:evenodd; clip-rule:evenodd"
viewBox="0 0 1030 1030"
 xmlns:xlink="http://www.w3.org/1999/xlink">
 <defs>
  <style type="text/css">
   <![CDATA[
    .str0 {stroke:#2B2A29;stroke-width:30.012}
    .fil1 {fill:#2B2A29}
    .fil0 {fill:#FEFEFE}
   ]]>
  </style>
 </defs>
 <g id="Layer_x0020_1">
  <metadata id="CorelCorpID_0Corel-Layer"/>
  <rect class="fil0" x="15" y="15" width="1000" height="1000"/>
  <circle class="fil0 str0" cx="515" cy="515" r="500"/>
  <path class="fil1" d="M340 257c54,-26 110,-39 168,-39 28,0 52,3 74,10 23,6 42,15 58,28 16,12 28,26 37,43 9,17 13,36 13,56 0,25 -7,46 -22,64 -15,18 -39,34 -71,48 22,8 40,17 54,26 21,13 37,30 49,50 11,21 16,44 16,68 0,39 -11,73 -34,103 -23,31 -55,55 -97,72 -41,17 -87,26 -138,26 -48,0 -92,-6 -134,-17l0 -109 42 0c11,38 43,57 95,57 30,0 56,-5 80,-16 24,-11 42,-27 56,-47 13,-20 19,-42 19,-66 0,-22 -5,-41 -16,-58 -11,-16 -26,-28 -47,-37 -20,-9 -44,-14 -71,-14l-35 0 0 -66 20 0c38,0 67,-5 86,-15 27,-14 40,-36 40,-66 0,-15 -4,-28 -11,-39 -8,-12 -19,-20 -33,-26 -14,-6 -30,-9 -50,-9 -54,0 -90,21 -109,62l-39 0 0 -89 0 0z"/>
 </g>
</svg>
