<?xml version="1.0" encoding="UTF-8"?>
<!DOCTYPE svg PUBLIC "-//W3C//DTD SVG 1.1//EN" "http://www.w3.org/Graphics/SVG/1.1/DTD/svg11.dtd">
<!-- Creator: CorelDRAW X7 -->
<svg xmlns="http://www.w3.org/2000/svg" xml:space="preserve" width="10.296mm" height="10.296mm" version="1.1" style="shape-rendering:geometricPrecision; text-rendering:geometricPrecision; image-rendering:optimizeQuality; fill-rule:evenodd; clip-rule:evenodd"
viewBox="0 0 1030 1030"
 xmlns:xlink="http://www.w3.org/1999/xlink">
 <defs>
  <style type="text/css">
   <![CDATA[
    .str0 {stroke:#2B2A29;stroke-width:30}
    .fil1 {fill:#B0CB1F}
    .fil2 {fill:#2B2A29}
    .fil0 {fill:#FEFEFE}
   ]]>
  </style>
 </defs>
 <g id="Layer_x0020_1">
  <metadata id="CorelCorpID_0Corel-Layer"/>
  <rect class="fil0" x="15" y="15" width="1000" height="1000"/>
  <circle class="fil1 str0" cx="515" cy="515" r="500"/>
  <path class="fil2" d="M646 228l0 367 79 0 0 73 -79 0 0 64c0,14 3,23 7,28 5,5 13,8 26,8l0 34 -166 0 0 -34c13,0 22,-3 27,-9 5,-5 8,-14 8,-27l0 -64 -268 0 0 -72 286 -368 80 0 0 0zm-98 369l0 -251 -188 251 188 0z"/>
 </g>
</svg>
